{
  "accessors": [
    {
      "bufferView": 2,
      "componentType": 5126,
      "count": 3209,
      "max": [
        0.8769909739494324,
        -0.1035432368516922,
        0.37734583020210266
      ],
      "min": [
        -0.7710512280464172,
        -0.997097373008728,
        -0.4309239685535431
      ],
      "type": "VEC3"
    },
    {
      "bufferView": 2,
      "byteOffset": 38508,
      "componentType": 5126,
      "count": 3209,
      "max": [
        0.9996983408927917,
        0.9989514350891113,
        0.9996094703674316
      ],
      "min": [
        -0.9996040463447571,
        -0.998591423034668,
        -0.9999816417694092
      ],
      "type": "VEC3"
    },
    {
      "bufferView": 0,
      "componentType": 5125,
      "count": 19230,
      "type": "SCALAR"
    },
    {
      "bufferView": 2,
      "byteOffset": 77016,
      "componentType": 5126,
      "count": 32698,
      "max": [
        0.8640537261962891,
        -0.11031866073608398,
        0.3738851845264435
      ],
      "min": [
        -0.7564205527305603,
        -0.9693288207054138,
        -0.4198746681213379
      ],
      "type": "VEC3"
    },
    {
      "bufferView": 2,
      "byteOffset": 469392,
      "componentType": 5126,
      "count": 32698,
      "max": [
        0.9999583959579468,
        0.999940037727356,
        0.9999241828918457
      ],
      "min": [
        -0.9999985098838806,
        -0.9999857544898987,
        -0.99995356798172
      ],
      "type": "VEC3"
    },
    {
      "bufferView": 3,
      "componentType": 5126,
      "count": 32698,
      "max": [
        0.999956488609314,
        0.999925971031189,
        0.9999121427536011,
        1.0
      ],
      "min": [
        -0.9999788403511047,
        -0.9638969302177429,
        -0.9999701380729675,
        -1.0
      ],
      "type": "VEC4"
    },
    {
      "bufferView": 1,
      "componentType": 5126,
      "count": 32698,
      "max": [
        0.9995099902153015,
        0.9982600212097168
      ],
      "min": [
        0.0004799999878741801,
        0.0004799999878741801
      ],
      "type": "VEC2"
    },
    {
      "bufferView": 0,
      "byteOffset": 76920,
      "componentType": 5125,
      "count": 194592,
      "type": "SCALAR"
    },
    {
      "bufferView": 2,
      "byteOffset": 861768,
      "componentType": 5126,
      "count": 23153,
      "max": [
        2.603365659713745,
        1.6229312419891357,
        -0.3947541415691376
      ],
      "min": [
        -2.6625049114227295,
        -1.3070216178894043,
        -4.419090747833252
      ],
      "type": "VEC3"
    },
    {
      "bufferView": 2,
      "byteOffset": 1139604,
      "componentType": 5126,
      "count": 23153,
      "max": [
        0.9995606541633606,
        0.9999918937683105,
        0.9999520182609558
      ],
      "min": [
        -0.9993798732757568,
        -0.9998950362205505,
        -0.9999986886978149
      ],
      "type": "VEC3"
    },
    {
      "bufferView": 3,
      "byteOffset": 523168,
      "componentType": 5126,
      "count": 23153,
      "max": [
        0.9999766945838928,
        0.9999901652336121,
        0.9990692734718323,
        1.0
      ],
      "min": [
        -0.9999912977218628,
        -0.9985652565956116,
        -0.9998152256011963,
        1.0
      ],
      "type": "VEC4"
    },
    {
      "bufferView": 1,
      "byteOffset": 261584,
      "componentType": 5126,
      "count": 23153,
      "max": [
        0.9995099902153015,
        0.8591799736022949
      ],
      "min": [
        0.0004799999878741801,
        0.0004799999878741801
      ],
      "type": "VEC2"
    },
    {
      "bufferView": 0,
      "byteOffset": 855288,
      "componentType": 5125,
      "count": 136944,
      "type": "SCALAR"
    },
    {
      "bufferView": 2,
      "byteOffset": 1417440,
      "componentType": 5126,
      "count": 65532,
      "max": [
        2.4701523780822754,
        0.8652024269104004,
        0.9623189568519592
      ],
      "min": [
        -2.4969310760498047,
        -1.5612585544586182,
        -3.440448522567749
      ],
      "type": "VEC3"
    },
    {
      "bufferView": 2,
      "byteOffset": 2203824,
      "componentType": 5126,
      "count": 65532,
      "max": [
        0.9999334216117859,
        0.9999769926071167,
        0.9999932050704956
      ],
      "min": [
        -0.9999802112579346,
        -0.999983012676239,
        -0.999940812587738
      ],
      "type": "VEC3"
    },
    {
      "bufferView": 3,
      "byteOffset": 893616,
      "componentType": 5126,
      "count": 65532,
      "max": [
        0.9999354481697083,
        0.9999952912330627,
        0.9998353719711304,
        1.0
      ],
      "min": [
        -0.9993970394134521,
        -0.999988317489624,
        -0.9999119639396667,
        1.0
      ],
      "type": "VEC4"
    },
    {
      "bufferView": 1,
      "byteOffset": 446808,
      "componentType": 5126,
      "count": 65532,
      "max": [
        0.9995099902153015,
        0.9333500266075134
      ],
      "min": [
        0.022690000012516975,
        0.0471000000834465
      ],
      "type": "VEC2"
    },
    {
      "bufferView": 0,
      "byteOffset": 1403064,
      "componentType": 5125,
      "count": 368337,
      "type": "SCALAR"
    },
    {
      "bufferView": 2,
      "byteOffset": 2990208,
      "componentType": 5126,
      "count": 37857,
      "max": [
        2.3850643634796143,
        0.8745596408843994,
        0.9648638963699341
      ],
      "min": [
        -2.5563385486602783,
        -1.311872124671936,
        -3.2325961589813232
      ],
      "type": "VEC3"
    },
    {
      "bufferView": 2,
      "byteOffset": 3444492,
      "componentType": 5126,
      "count": 37857,
      "max": [
        0.9997656941413879,
        0.9999899864196777,
        0.9999845623970032
      ],
      "min": [
        -0.9998856782913208,
        -0.9999514818191528,
        -0.9999476671218872
      ],
      "type": "VEC3"
    },
    {
      "bufferView": 3,
      "byteOffset": 1942128,
      "componentType": 5126,
      "count": 37857,
      "max": [
        0.9994950294494629,
        0.9999547004699707,
        0.9999488592147827,
        1.0
      ],
      "min": [
        -0.9789188504219055,
        -0.9996240139007568,
        -0.999643862247467,
        -1.0
      ],
      "type": "VEC4"
    },
    {
      "bufferView": 1,
      "byteOffset": 971064,
      "componentType": 5126,
      "count": 37857,
      "max": [
        0.9774199724197388,
        0.9382699728012085
      ],
      "min": [
        0.0004799999878741801,
        0.0004799999878741801
      ],
      "type": "VEC2"
    },
    {
      "bufferView": 0,
      "byteOffset": 2876412,
      "componentType": 5125,
      "count": 196479,
      "type": "SCALAR"
    },
    {
      "bufferView": 2,
      "byteOffset": 3898776,
      "componentType": 5126,
      "count": 4999,
      "max": [
        1.4443137645721436,
        1.2457772493362427,
        0.14756591618061066
      ],
      "min": [
        -1.5240412950515747,
        -1.0920699834823608,
        -1.7955859899520874
      ],
      "type": "VEC3"
    },
    {
      "bufferView": 2,
      "byteOffset": 3958764,
      "componentType": 5126,
      "count": 4999,
      "max": [
        0.9997772574424744,
        0.9998470544815063,
        0.9991684556007385
      ],
      "min": [
        -0.9705113172531128,
        -0.999869704246521,
        -0.9999623894691467
      ],
      "type": "VEC3"
    },
    {
      "bufferView": 3,
      "byteOffset": 2547840,
      "componentType": 5126,
      "count": 4999,
      "max": [
        0.9999591112136841,
        0.9993484616279602,
        0.9981771111488342,
        1.0
      ],
      "min": [
        -0.7202309370040894,
        -0.9817833304405212,
        -0.9969130158424377,
        1.0
      ],
      "type": "VEC4"
    },
    {
      "bufferView": 1,
      "byteOffset": 1273920,
      "componentType": 5126,
      "count": 4999,
      "max": [
        0.6716600060462952,
        0.9995099902153015
      ],
      "min": [
        0.0004799999878741801,
        0.0004799999878741801
      ],
      "type": "VEC2"
    },
    {
      "bufferView": 0,
      "byteOffset": 3662328,
      "componentType": 5125,
      "count": 29640,
      "type": "SCALAR"
    },
    {
      "bufferView": 2,
      "byteOffset": 4018752,
      "componentType": 5126,
      "count": 11934,
      "max": [
        46.89586639404297,
        4.4907989501953125,
        51.19162368774414
      ],
      "min": [
        -57.104129791259766,
        -4.539623260498047,
        -53.461307525634766
      ],
      "type": "VEC3"
    },
    {
      "bufferView": 2,
      "byteOffset": 4161960,
      "componentType": 5126,
      "count": 11934,
      "max": [
        0.9998486042022705,
        0.9999911785125732,
        0.9999983906745911
      ],
      "min": [
        -0.9996339678764343,
        -0.9562855958938599,
        -0.9997614026069641
      ],
      "type": "VEC3"
    },
    {
      "bufferView": 3,
      "byteOffset": 2627824,
      "componentType": 5126,
      "count": 11934,
      "max": [
        0.9999806880950928,
        0.9998210668563843,
        0.9999943375587463,
        1.0
      ],
      "min": [
        -0.9999861121177673,
        -0.9995856881141663,
        -0.9871309399604797,
        -1.0
      ],
      "type": "VEC4"
    },
    {
      "bufferView": 1,
      "byteOffset": 1313912,
      "componentType": 5126,
      "count": 11934,
      "max": [
        0.9988999962806702,
        0.9988999962806702
      ],
      "min": [
        0.0003000000142492354,
        0.0003000000142492354
      ],
      "type": "VEC2"
    },
    {
      "bufferView": 0,
      "byteOffset": 3780888,
      "componentType": 5125,
      "count": 58866,
      "type": "SCALAR"
    },
    {
      "bufferView": 2,
      "byteOffset": 4305168,
      "componentType": 5126,
      "count": 6017,
      "max": [
        62.578250885009766,
        121.7440185546875,
        80.40458679199219
      ],
      "min": [
        -58.4217529296875,
        -4.591941833496094,
        -80.37154388427734
      ],
      "type": "VEC3"
    },
    {
      "bufferView": 2,
      "byteOffset": 4377372,
      "componentType": 5126,
      "count": 6017,
      "max": [
        0.9998893141746521,
        0.9996158480644226,
        0.9949945211410522
      ],
      "min": [
        -0.9997020959854126,
        -0.999987006187439,
        -0.9992757439613342
      ],
      "type": "VEC3"
    },
    {
      "bufferView": 3,
      "byteOffset": 2818768,
      "componentType": 5126,
      "count": 6017,
      "max": [
        0.9930288791656494,
        0.993732750415802,
        0.9964593052864075,
        1.0
      ],
      "min": [
        -0.943810224533081,
        -0.9950919151306152,
        -0.9961187243461609,
        1.0
      ],
      "type": "VEC4"
    },
    {
      "bufferView": 1,
      "byteOffset": 1409384,
      "componentType": 5126,
      "count": 6017,
      "max": [
        0.977940022945404,
        0.977940022945404
      ],
      "min": [
        0.016096318140625954,
        0.01607999950647354
      ],
      "type": "VEC2"
    },
    {
      "bufferView": 0,
      "byteOffset": 4016352,
      "componentType": 5125,
      "count": 33324,
      "type": "SCALAR"
    }
  ],
  "asset": {
    "extras": {
      "author": "Fred Drabble (https://sketchfab.com/FredDrabble)",
      "license": "CC-BY-4.0 (http://creativecommons.org/licenses/by/4.0/)",
      "source": "https://sketchfab.com/3d-models/baby-yoda-792af9325efe4e89a0b07fc17c80abe1",
      "title": "BABY YODA"
    },
    "generator": "Sketchfab-12.67.0",
    "version": "2.0"
  },
  "bufferViews": [
    {
      "buffer": 0,
      "byteLength": 4149648,
      "name": "floatBufferViews",
      "target": 34963
    },
    {
      "buffer": 0,
      "byteLength": 1457520,
      "byteOffset": 4149648,
      "byteStride": 8,
      "name": "floatBufferViews",
      "target": 34962
    },
    {
      "buffer": 0,
      "byteLength": 4449576,
      "byteOffset": 5607168,
      "byteStride": 12,
      "name": "floatBufferViews",
      "target": 34962
    },
    {
      "buffer": 0,
      "byteLength": 2915040,
      "byteOffset": 10056744,
      "byteStride": 16,
      "name": "floatBufferViews",
      "target": 34962
    }
  ],
  "buffers": [
    {
      "byteLength": 12971784,
      "uri": "scene.bin"
    }
  ],
  "extensionsUsed": [
    "KHR_materials_clearcoat",
    "KHR_materials_transmission"
  ],
  "images": [
    {
      "uri": "textures/eyes_baseColor.png"
    },
    {
      "uri": "textures/eyes_metallicRoughness.png"
    },
    {
      "uri": "textures/eyes_normal.png"
    },
    {
      "uri": "textures/jacket_baseColor.png"
    },
    {
      "uri": "textures/jacket_metallicRoughness.png"
    },
    {
      "uri": "textures/jacket_normal.png"
    },
    {
      "uri": "textures/skin_baseColor.png"
    },
    {
      "uri": "textures/skin_metallicRoughness.png"
    },
    {
      "uri": "textures/skin_normal.png"
    },
    {
      "uri": "textures/collar_baseColor.png"
    },
    {
      "uri": "textures/collar_metallicRoughness.png"
    },
    {
      "uri": "textures/collar_normal.png"
    },
    {
      "uri": "textures/ground_baseColor.jpeg"
    },
    {
      "uri": "textures/ground_metallicRoughness.png"
    },
    {
      "uri": "textures/ground_normal.png"
    },
    {
      "uri": "textures/05_-_Default_baseColor.jpeg"
    },
    {
      "uri": "textures/05_-_Default_metallicRoughness.png"
    },
    {
      "uri": "textures/05_-_Default_normal.png"
    }
  ],
  "materials": [
    {
      "alphaMode": "BLEND",
      "doubleSided": true,
      "extensions": {
        "KHR_materials_clearcoat": {
          "clearcoatFactor": 1.0,
          "clearcoatRoughnessFactor": 0.0
        },
        "KHR_materials_transmission": {
          "transmissionFactor": 1.0
        }
      },
      "name": "lens",
      "pbrMetallicRoughness": {
        "baseColorFactor": [
          1.0,
          1.0,
          1.0,
          0.25
        ],
        "metallicFactor": 0.0,
        "roughnessFactor": 0.0
      }
    },
    {
      "doubleSided": true,
      "name": "eyes",
      "normalTexture": {
        "index": 2
      },
      "pbrMetallicRoughness": {
        "baseColorTexture": {
          "index": 0
        },
        "metallicFactor": 0.0,
        "metallicRoughnessTexture": {
          "index": 1
        }
      }
    },
    {
      "doubleSided": true,
      "name": "jacket",
      "normalTexture": {
        "index": 5
      },
      "occlusionTexture": {
        "index": 4
      },
      "pbrMetallicRoughness": {
        "baseColorTexture": {
          "index": 3
        },
        "metallicFactor": 0.0,
        "metallicRoughnessTexture": {
          "index": 4
        },
        "roughnessFactor": 0.6
      }
    },
    {
      "doubleSided": true,
      "name": "skin",
      "normalTexture": {
        "index": 8
      },
      "occlusionTexture": {
        "index": 7
      },
      "pbrMetallicRoughness": {
        "baseColorTexture": {
          "index": 6
        },
        "metallicFactor": 0.0,
        "metallicRoughnessTexture": {
          "index": 7
        },
        "roughnessFactor": 0.5306851139120442
      }
    },
    {
      "doubleSided": true,
      "name": "collar",
      "normalTexture": {
        "index": 11
      },
      "occlusionTexture": {
        "index": 10
      },
      "pbrMetallicRoughness": {
        "baseColorTexture": {
          "index": 9
        },
        "metallicFactor": 0.0,
        "metallicRoughnessTexture": {
          "index": 10
        },
        "roughnessFactor": 0.6
      }
    },
    {
      "doubleSided": true,
      "name": "ground",
      "normalTexture": {
        "index": 14
      },
      "pbrMetallicRoughness": {
        "baseColorTexture": {
          "index": 12
        },
        "metallicFactor": 0.20843593625546455,
        "metallicRoughnessTexture": {
          "index": 13
        }
      }
    },
    {
      "doubleSided": true,
      "name": "05_-_Default",
      "normalTexture": {
        "index": 17
      },
      "pbrMetallicRoughness": {
        "baseColorTexture": {
          "index": 15
        },
        "metallicFactor": 0.0,
        "metallicRoughnessTexture": {
          "index": 16
        }
      }
    }
  ],
  "meshes": [
    {
      "name": "lens_lens_0",
      "primitives": [
        {
          "attributes": {
            "NORMAL": 1,
            "POSITION": 0
          },
          "indices": 2,
          "material": 0,
          "mode": 4
        }
      ]
    },
    {
      "name": "eyesLP_eyes_0",
      "primitives": [
        {
          "attributes": {
            "NORMAL": 4,
            "POSITION": 3,
            "TANGENT": 5,
            "TEXCOORD_0": 6
          },
          "indices": 7,
          "material": 1,
          "mode": 4
        }
      ]
    },
    {
      "name": "jacketLP_jacket_0",
      "primitives": [
        {
          "attributes": {
            "NORMAL": 9,
            "POSITION": 8,
            "TANGENT": 10,
            "TEXCOORD_0": 11
          },
          "indices": 12,
          "material": 2,
          "mode": 4
        }
      ]
    },
    {
      "name": "headMP_skin_0",
      "primitives": [
        {
          "attributes": {
            "NORMAL": 14,
            "POSITION": 13,
            "TANGENT": 15,
            "TEXCOORD_0": 16
          },
          "indices": 17,
          "material": 3,
          "mode": 4
        }
      ]
    },
    {
      "name": "headMP_skin_0",
      "primitives": [
        {
          "attributes": {
            "NORMAL": 19,
            "POSITION": 18,
            "TANGENT": 20,
            "TEXCOORD_0": 21
          },
          "indices": 22,
          "material": 3,
          "mode": 4
        }
      ]
    },
    {
      "name": "collarLP_collar_0",
      "primitives": [
        {
          "attributes": {
            "NORMAL": 24,
            "POSITION": 23,
            "TANGENT": 25,
            "TEXCOORD_0": 26
          },
          "indices": 27,
          "material": 4,
          "mode": 4
        }
      ]
    },
    {
      "name": "Aset_rock_sandstone_S_rkhtq_LOD1_ground_0",
      "primitives": [
        {
          "attributes": {
            "NORMAL": 29,
            "POSITION": 28,
            "TANGENT": 30,
            "TEXCOORD_0": 31
          },
          "indices": 32,
          "material": 5,
          "mode": 4
        }
      ]
    },
    {
      "name": "Aset_rock_M_shopk_LOD1_05 - Default_0",
      "primitives": [
        {
          "attributes": {
            "NORMAL": 34,
            "POSITION": 33,
            "TANGENT": 35,
            "TEXCOORD_0": 36
          },
          "indices": 37,
          "material": 6,
          "mode": 4
        }
      ]
    }
  ],
  "nodes": [
    {
      "children": [
        1
      ],
      "matrix": [
        1.0,
        0.0,
        0.0,
        0.0,
        0.0,
        2.220446049250313e-16,
        -1.0,
        0.0,
        0.0,
        1.0,
        2.220446049250313e-16,
        0.0,
        0.0,
        0.0,
        0.0,
        1.0
      ],
      "name": "Sketchfab_model"
    },
    {
      "children": [
        2
      ],
      "matrix": [
        1.0,
        0.0,
        0.0,
        0.0,
        0.0,
        0.0,
        1.0,
        0.0,
        0.0,
        -1.0,
        0.0,
        0.0,
        0.0,
        0.0,
        0.0,
        1.0
      ],
      "name": "838b49184bc14a2dbfea5f1a55eb67d7.fbx"
    },
    {
      "children": [
        3,
        5,
        7,
        9,
        12,
        14,
        16
      ],
      "name": "RootNode"
    },
    {
      "children": [
        4
      ],
      "matrix": [
        5.885875225067139,
        0.0,
        0.0,
        0.0,
        0.0,
        -1.0815399579967975,
        -5.7856545424278,
        0.0,
        0.0,
        5.7856545424278,
        -1.0815399579967975,
        0.0,
        0.005609001033008099,
        26.725658416748047,
        -2.530524253845215,
        1.0
      ],
      "name": "lens"
    },
    {
      "mesh": 0,
      "name": "lens_lens_0"
    },
    {
      "children": [
        6
      ],
      "matrix": [
        5.885875225067139,
        0.0,
        0.0,
        0.0,
        0.0,
        -1.0815399579967975,
        -5.7856545424278,
        0.0,
        0.0,
        5.7856545424278,
        -1.0815399579967975,
        0.0,
        0.005609001033008099,
        26.725658416748047,
        -2.530524253845215,
        1.0
      ],
      "name": "eyesLP"
    },
    {
      "mesh": 1,
      "name": "eyesLP_eyes_0"
    },
    {
      "children": [
        8
      ],
      "matrix": [
        5.885875225067139,
        0.0,
        0.0,
        0.0,
        0.0,
        -1.0815399579967975,
        -5.7856545424278,
        0.0,
        0.0,
        5.7856545424278,
        -1.0815399579967975,
        0.0,
        0.005609001033008099,
        26.725658416748047,
        -2.530524253845215,
        1.0
      ],
      "name": "jacketLP"
    },
    {
      "mesh": 2,
      "name": "jacketLP_jacket_0"
    },
    {
      "children": [
        10,
        11
      ],
      "matrix": [
        5.885875225067139,
        0.0,
        0.0,
        0.0,
        0.0,
        -1.0815399579967975,
        -5.7856545424278,
        0.0,
        0.0,
        5.7856545424278,
        -1.0815399579967975,
        0.0,
        0.005609001033008099,
        26.725658416748047,
        -2.530524253845215,
        1.0
      ],
      "name": "headMP"
    },
    {
      "mesh": 3,
      "name": "headMP_skin_0"
    },
    {
      "mesh": 4,
      "name": "headMP_skin_0"
    },
    {
      "children": [
        13
      ],
      "matrix": [
        5.885875225067139,
        0.0,
        0.0,
        0.0,
        0.0,
        -1.0815399579967975,
        -5.7856545424278,
        0.0,
        0.0,
        5.7856545424278,
        -1.0815399579967975,
        0.0,
        0.005609001033008099,
        26.725658416748047,
        -2.530524253845215,
        1.0
      ],
      "name": "collarLP"
    },
    {
      "mesh": 5,
      "name": "collarLP_collar_0"
    },
    {
      "children": [
        15
      ],
      "matrix": [
        -0.4911529741185686,
        -6.014889359590667e-17,
        1.5904439472945917,
        0.0,
        -6.952051050191243e-08,
        1.6645549535751327,
        -2.146897754756883e-08,
        0.0,
        -1.5904439472945902,
        -7.27600053421145e-08,
        -0.4911529741185683,
        0.0,
        -5.402039051055908,
        2.546527862548828,
        13.190818786621094,
        1.0
      ],
      "name": "Aset_rock_sandstone_S_rkhtq_LOD1"
    },
    {
      "mesh": 6,
      "name": "Aset_rock_sandstone_S_rkhtq_LOD1_ground_0"
    },
    {
      "children": [
        17
      ],
      "matrix": [
        0.25026421780944325,
        0.1665665341905968,
        1.0199252067153387e-17,
        0.0,
        -0.16656653419059458,
        0.2502642178094399,
        4.8978358107875766e-08,
        0.0,
        2.7137135197157784e-08,
        -4.0773219841392215e-08,
        0.3006269931793173,
        0.0,
        -13.65810775756836,
        24.888669967651367,
        45.19230651855469,
        1.0
      ],
      "name": "Aset_rock_M_shopk_LOD1"
    },
    {
      "mesh": 7,
      "name": "Aset_rock_M_shopk_LOD1_05 - Default_0"
    }
  ],
  "samplers": [
    {
      "magFilter": 9729,
      "minFilter": 9987,
      "wrapS": 10497,
      "wrapT": 10497
    }
  ],
  "scene": 0,
  "scenes": [
    {
      "name": "Sketchfab_Scene",
      "nodes": [
        0
      ]
    }
  ],
  "textures": [
    {
      "sampler": 0,
      "source": 0
    },
    {
      "sampler": 0,
      "source": 1
    },
    {
      "sampler": 0,
      "source": 2
    },
    {
      "sampler": 0,
      "source": 3
    },
    {
      "sampler": 0,
      "source": 4
    },
    {
      "sampler": 0,
      "source": 5
    },
    {
      "sampler": 0,
      "source": 6
    },
    {
      "sampler": 0,
      "source": 7
    },
    {
      "sampler": 0,
      "source": 8
    },
    {
      "sampler": 0,
      "source": 9
    },
    {
      "sampler": 0,
      "source": 10
    },
    {
      "sampler": 0,
      "source": 11
    },
    {
      "sampler": 0,
      "source": 12
    },
    {
      "sampler": 0,
      "source": 13
    },
    {
      "sampler": 0,
      "source": 14
    },
    {
      "sampler": 0,
      "source": 15
    },
    {
      "sampler": 0,
      "source": 16
    },
    {
      "sampler": 0,
      "source": 17
    }
  ]
}
